<mxfile host="app.diagrams.net" modified="2023-09-28T03:36:11.959Z" agent="Mozilla/5.0 (Windows NT 10.0; Win64; x64) AppleWebKit/537.36 (KHTML, like Gecko) Chrome/117.0.0.0 Safari/537.36" version="21.7.5" etag="lgin-XFJYjtUeuEnL_wC" type="github">
  <diagram name="第 1 页" id="QyBNQuzQvgutKamZO95u">
    <mxGraphModel>
      <root>
        <mxCell id="0" />
        <mxCell id="1" parent="0" />
      </root>
    </mxGraphModel>
  </diagram>
</mxfile>
